<?xml version="1.0" encoding="UTF-8" standalone="no"?><!DOCTYPE svg PUBLIC "-//W3C//DTD SVG 1.1//EN" "http://www.w3.org/Graphics/SVG/1.1/DTD/svg11.dtd"><svg width="100%" height="100%" viewBox="0 0 1592 286" version="1.1" xmlns="http://www.w3.org/2000/svg" xmlns:xlink="http://www.w3.org/1999/xlink" xml:space="preserve" style="fill-rule:evenodd;clip-rule:evenodd;stroke-linecap:round;stroke-linejoin:round;stroke-miterlimit:1.41421;"><g><g><path d="M198.242,23.212c0,-4.031 -3.273,-7.303 -7.303,-7.303l-167.975,0c-4.03,0 -7.303,3.272 -7.303,7.303l0,167.966c0,4.031 3.273,7.303 7.303,7.303l167.975,0c4.03,0 7.303,-3.272 7.303,-7.303l0,-167.966Z" style="fill:none;stroke-width:18px;stroke:#2b2b2b;"/><path d="M258.991,87.629c0,-4.03 -3.272,-7.303 -7.303,-7.303l-167.974,0c-4.031,0 -7.303,3.273 -7.303,7.303l0,167.967c0,4.03 3.272,7.302 7.303,7.302l167.974,0c4.031,0 7.303,-3.272 7.303,-7.302l0,-167.967Z" style="fill:none;stroke-width:18px;stroke:#2b2b2b;"/></g><text x="336.04px" y="204.697px" style="font-family:'Denmark';font-size:199.376px;fill:#2b2b2b;">M<tspan x="591.44px 791.016px 1003.95px 1205.52px 1431.01px " y="204.697px 204.697px 204.697px 204.697px 204.697px ">ARKOV</tspan></text><text x="341.19px" y="271.859px" style="font-family:'OpenSans-Light', 'Open Sans', sans-serif;font-weight:300;font-size:55.405px;fill:#9c9191;">Easy te<tspan x="514.602px 542.196px " y="271.859px 271.859px ">xt</tspan> gener<tspan x="718.07px 747.423px " y="271.859px 271.859px ">at</tspan>ion using Mark<tspan x="1129.53px 1160.88px 1186.31px " y="271.859px 271.859px 271.859px ">ov </tspan>chains</text></g></svg>