<?xml version="1.0" encoding="UTF-8" standalone="no"?><!DOCTYPE svg PUBLIC "-//W3C//DTD SVG 1.1//EN" "http://www.w3.org/Graphics/SVG/1.1/DTD/svg11.dtd"><svg width="100%" height="100%" viewBox="0 0 1246 226" version="1.1" xmlns="http://www.w3.org/2000/svg" xmlns:xlink="http://www.w3.org/1999/xlink" xml:space="preserve" style="fill-rule:evenodd;clip-rule:evenodd;stroke-linejoin:round;stroke-miterlimit:1.41421;"><g><path d="M175.349,141.966l-30.105,0l0,-106.666l-39.477,106.666l-35.887,0l-40.673,-109.059l0,109.059l-29.109,0l0,-139.563l46.654,0l40.872,110.454l39.277,-110.454l48.448,0l0,139.563Z" style="fill:#2b2b2b;fill-rule:nonzero;"/><path d="M391.274,141.966l-34.891,0l-11.763,-31.9l-57.62,0l-12.561,31.9l-34.492,0l57.221,-139.563l34.093,0l60.013,139.563ZM333.853,85.742l-18.94,-49.047l-18.343,49.047l37.283,0Z" style="fill:#2b2b2b;fill-rule:nonzero;"/><path d="M601.416,141.966l-39.277,0l-36.087,-54.43l-37.483,0l0,54.43l-33.495,0l0,-139.563l102.08,0c11.564,0 21.134,4.486 28.711,13.458c7.576,8.972 11.364,19.572 11.364,31.8c0,9.703 -3.256,17.944 -9.769,24.723c-6.513,6.778 -14.754,11.032 -24.723,12.76l38.679,56.822ZM556.955,46.265c0,-6.513 -2.426,-11.53 -7.277,-15.052c-4.852,-3.523 -11.398,-5.284 -19.639,-5.284l-41.869,0l0,39.078l42.866,0c6.247,0 11.83,-1.396 16.748,-4.187c6.114,-3.456 9.171,-8.307 9.171,-14.555Z" style="fill:#2b2b2b;fill-rule:nonzero;"/><path d="M798.2,2.403l-62.006,68.784l60.012,70.779l-43.264,0l-53.034,-70.978l55.027,-68.585l43.265,0ZM698.911,141.966l-30.904,0l0,-139.563l30.904,0l0,139.563Z" style="fill:#2b2b2b;fill-rule:nonzero;"/><path d="M1019.31,71.985c0,27.115 -7.51,46.521 -22.53,58.218c-12.228,9.437 -30.039,14.155 -53.432,14.155c-25.919,0 -45.059,-5.449 -57.421,-16.348c-13.557,-11.963 -20.336,-31.17 -20.336,-57.62c0,-21.666 6.048,-38.546 18.143,-50.642c13.159,-13.158 32.831,-19.738 59.016,-19.738c28.843,0 49.179,6.314 61.009,18.941c10.367,11.165 15.551,28.843 15.551,53.034ZM983.819,71.187c0,-13.69 -3.256,-24.589 -9.769,-32.697c-7.311,-9.039 -18.144,-13.558 -32.499,-13.558c-14.089,0 -24.722,4.852 -31.9,14.555c-5.981,8.108 -8.972,18.675 -8.972,31.7c0,15.02 2.393,26.119 7.178,33.296c6.646,9.969 18.941,14.953 36.884,14.953c15.153,0 25.786,-4.851 31.901,-14.554c4.785,-7.576 7.177,-18.808 7.177,-33.695Z" style="fill:#2b2b2b;fill-rule:nonzero;"/><path d="M1245.8,2.403l-66.99,139.962l-34.891,0l-65.196,-139.962l38.081,0l45.258,106.267l45.657,-106.267l38.081,0Z" style="fill:#2b2b2b;fill-rule:nonzero;"/><path d="M25.495,211.83l-22.048,0l0,-39.552l22.048,0l0,4.085l-17.449,0l0,12.742l16.394,0l0,4.058l-16.394,0l0,14.555l17.449,0l0,4.112Z" style="fill:#9c9191;fill-rule:nonzero;"/><path d="M51.818,211.83l-0.893,-4.22l-0.216,0c-1.479,1.857 -2.954,3.115 -4.424,3.774c-1.469,0.658 -3.305,0.987 -5.505,0.987c-2.94,0 -5.244,-0.757 -6.912,-2.272c-1.668,-1.515 -2.502,-3.671 -2.502,-6.466c0,-5.988 4.788,-9.126 14.365,-9.415l5.032,-0.162l0,-1.84c0,-2.326 -0.501,-4.044 -1.502,-5.153c-1.001,-1.109 -2.601,-1.664 -4.802,-1.664c-2.47,0 -5.266,0.757 -8.386,2.272l-1.38,-3.435c1.461,-0.794 3.062,-1.416 4.802,-1.867c1.741,-0.451 3.485,-0.676 5.235,-0.676c3.535,0 6.155,0.784 7.859,2.353c1.704,1.569 2.556,4.085 2.556,7.548l0,20.236l-3.327,0ZM41.673,208.665c2.795,0 4.991,-0.767 6.587,-2.3c1.597,-1.533 2.395,-3.679 2.395,-6.438l0,-2.679l-4.491,0.19c-3.571,0.126 -6.146,0.681 -7.724,1.663c-1.578,0.983 -2.367,2.512 -2.367,4.586c0,1.623 0.491,2.859 1.474,3.706c0.983,0.848 2.358,1.272 4.126,1.272Z" style="fill:#9c9191;fill-rule:nonzero;"/><path d="M83.524,203.741c0,2.76 -1.028,4.888 -3.084,6.385c-2.056,1.497 -4.942,2.245 -8.657,2.245c-3.932,0 -6.998,-0.622 -9.198,-1.867l0,-4.166c1.425,0.722 2.953,1.29 4.586,1.705c1.632,0.414 3.205,0.622 4.72,0.622c2.345,0 4.149,-0.374 5.411,-1.123c1.262,-0.748 1.894,-1.889 1.894,-3.422c0,-1.154 -0.501,-2.142 -1.502,-2.962c-1.001,-0.821 -2.953,-1.791 -5.857,-2.909c-2.759,-1.028 -4.721,-1.925 -5.884,-2.692c-1.163,-0.766 -2.029,-1.636 -2.597,-2.61c-0.568,-0.974 -0.852,-2.137 -0.852,-3.49c0,-2.417 0.983,-4.324 2.949,-5.722c1.966,-1.398 4.662,-2.096 8.089,-2.096c3.192,0 6.312,0.649 9.36,1.947l-1.596,3.653c-2.976,-1.227 -5.672,-1.84 -8.089,-1.84c-2.128,0 -3.733,0.334 -4.816,1.001c-1.082,0.667 -1.623,1.587 -1.623,2.759c0,0.794 0.203,1.47 0.609,2.029c0.406,0.559 1.06,1.092 1.961,1.597c0.902,0.505 2.634,1.235 5.195,2.191c3.516,1.28 5.893,2.57 7.128,3.868c1.236,1.299 1.853,2.931 1.853,4.897Z" style="fill:#9c9191;fill-rule:nonzero;"/><path d="M86.121,182.18l4.816,0l6.493,16.908c1.424,3.86 2.308,6.646 2.651,8.359l0.216,0c0.235,-0.919 0.726,-2.493 1.475,-4.72c0.748,-2.228 3.196,-9.077 7.345,-20.547l4.815,0l-12.742,33.762c-1.262,3.337 -2.737,5.704 -4.423,7.102c-1.687,1.397 -3.756,2.096 -6.209,2.096c-1.371,0 -2.723,-0.153 -4.058,-0.46l0,-3.598c0.992,0.217 2.101,0.325 3.328,0.325c3.084,0 5.284,-1.732 6.601,-5.194l1.65,-4.221l-11.958,-29.812Z" style="fill:#9c9191;fill-rule:nonzero;"/><path d="M142.717,208.665c0.793,0 1.56,-0.059 2.299,-0.176c0.74,-0.117 1.326,-0.239 1.759,-0.365l0,3.435c-0.487,0.235 -1.204,0.429 -2.151,0.582c-0.947,0.153 -1.799,0.23 -2.557,0.23c-5.735,0 -8.603,-3.021 -8.603,-9.063l0,-17.638l-4.247,0l0,-2.165l4.247,-1.866l1.894,-6.331l2.597,0l0,6.872l8.603,0l0,3.49l-8.603,0l0,17.449c0,1.785 0.424,3.156 1.272,4.112c0.847,0.956 2.011,1.434 3.49,1.434Z" style="fill:#9c9191;fill-rule:nonzero;"/><path d="M165.225,212.371c-4.383,0 -7.841,-1.335 -10.375,-4.004c-2.534,-2.669 -3.801,-6.375 -3.801,-11.119c0,-4.779 1.177,-8.576 3.531,-11.389c2.353,-2.814 5.514,-4.22 9.482,-4.22c3.715,0 6.655,1.222 8.819,3.665c2.164,2.444 3.246,5.668 3.246,9.672l0,2.84l-20.425,0c0.09,3.481 0.97,6.123 2.638,7.927c1.668,1.804 4.017,2.705 7.047,2.705c3.193,0 6.349,-0.667 9.469,-2.002l0,4.004c-1.587,0.686 -3.089,1.177 -4.504,1.475c-1.416,0.297 -3.125,0.446 -5.127,0.446ZM164.008,185.399c-2.381,0 -4.279,0.776 -5.695,2.327c-1.416,1.551 -2.25,3.697 -2.503,6.438l15.502,0c0,-2.831 -0.631,-5 -1.894,-6.506c-1.262,-1.506 -3.066,-2.259 -5.41,-2.259Z" style="fill:#9c9191;fill-rule:nonzero;"/><path d="M189.816,196.653l-10.307,-14.473l5.113,0l7.819,11.362l7.791,-11.362l5.059,0l-10.307,14.473l10.848,15.177l-5.086,0l-8.305,-12.012l-8.387,12.012l-5.086,0l10.848,-15.177Z" style="fill:#9c9191;fill-rule:nonzero;"/><path d="M221.279,208.665c0.794,0 1.56,-0.059 2.3,-0.176c0.739,-0.117 1.325,-0.239 1.758,-0.365l0,3.435c-0.487,0.235 -1.204,0.429 -2.151,0.582c-0.946,0.153 -1.799,0.23 -2.556,0.23c-5.735,0 -8.603,-3.021 -8.603,-9.063l0,-17.638l-4.247,0l0,-2.165l4.247,-1.866l1.894,-6.331l2.597,0l0,6.872l8.603,0l0,3.49l-8.603,0l0,17.449c0,1.785 0.424,3.156 1.271,4.112c0.848,0.956 2.011,1.434 3.49,1.434Z" style="fill:#9c9191;fill-rule:nonzero;"/><path d="M269.921,182.18l0,2.84l-5.492,0.65c0.505,0.631 0.956,1.456 1.353,2.475c0.397,1.019 0.595,2.169 0.595,3.449c0,2.904 -0.992,5.221 -2.976,6.953c-1.984,1.731 -4.707,2.597 -8.17,2.597c-0.884,0 -1.713,-0.072 -2.489,-0.216c-1.912,1.01 -2.867,2.281 -2.867,3.814c0,0.812 0.333,1.411 1,1.799c0.668,0.388 1.813,0.582 3.436,0.582l5.249,0c3.21,0 5.676,0.676 7.399,2.029c1.722,1.352 2.583,3.318 2.583,5.897c0,3.283 -1.316,5.785 -3.95,7.508c-2.633,1.722 -6.474,2.583 -11.524,2.583c-3.878,0 -6.867,-0.721 -8.968,-2.164c-2.102,-1.443 -3.152,-3.481 -3.152,-6.114c0,-1.804 0.577,-3.364 1.731,-4.68c1.155,-1.317 2.778,-2.21 4.87,-2.679c-0.758,-0.342 -1.393,-0.874 -1.907,-1.596c-0.514,-0.721 -0.771,-1.56 -0.771,-2.516c0,-1.082 0.288,-2.029 0.865,-2.84c0.577,-0.812 1.488,-1.596 2.733,-2.354c-1.533,-0.631 -2.782,-1.704 -3.747,-3.219c-0.965,-1.515 -1.448,-3.247 -1.448,-5.194c0,-3.247 0.974,-5.749 2.922,-7.508c1.948,-1.758 4.707,-2.637 8.279,-2.637c1.551,0 2.948,0.18 4.193,0.541l10.253,0ZM246.276,216.808c0,1.605 0.677,2.822 2.029,3.652c1.353,0.83 3.292,1.244 5.817,1.244c3.769,0 6.56,-0.563 8.373,-1.69c1.812,-1.128 2.719,-2.656 2.719,-4.586c0,-1.605 -0.496,-2.719 -1.488,-3.341c-0.992,-0.622 -2.859,-0.933 -5.6,-0.933l-5.384,0c-2.038,0 -3.625,0.487 -4.761,1.461c-1.136,0.973 -1.705,2.371 -1.705,4.193ZM248.711,191.675c0,2.074 0.586,3.644 1.759,4.708c1.172,1.064 2.804,1.596 4.896,1.596c4.383,0 6.574,-2.128 6.574,-6.385c0,-4.455 -2.218,-6.682 -6.655,-6.682c-2.11,0 -3.733,0.568 -4.869,1.704c-1.137,1.137 -1.705,2.823 -1.705,5.059Z" style="fill:#9c9191;fill-rule:nonzero;"/><path d="M288.534,212.371c-4.383,0 -7.841,-1.335 -10.375,-4.004c-2.534,-2.669 -3.801,-6.375 -3.801,-11.119c0,-4.779 1.176,-8.576 3.53,-11.389c2.354,-2.814 5.514,-4.22 9.482,-4.22c3.716,0 6.655,1.222 8.82,3.665c2.164,2.444 3.246,5.668 3.246,9.672l0,2.84l-20.425,0c0.09,3.481 0.969,6.123 2.638,7.927c1.668,1.804 4.017,2.705 7.047,2.705c3.192,0 6.348,-0.667 9.469,-2.002l0,4.004c-1.588,0.686 -3.089,1.177 -4.505,1.475c-1.416,0.297 -3.125,0.446 -5.126,0.446ZM287.316,185.399c-2.381,0 -4.279,0.776 -5.695,2.327c-1.415,1.551 -2.249,3.697 -2.502,6.438l15.502,0c0,-2.831 -0.632,-5 -1.894,-6.506c-1.263,-1.506 -3.066,-2.259 -5.411,-2.259Z" style="fill:#9c9191;fill-rule:nonzero;"/><path d="M327.382,211.83l0,-19.181c0,-2.416 -0.55,-4.22 -1.65,-5.41c-1.1,-1.191 -2.823,-1.786 -5.167,-1.786c-3.103,0 -5.375,0.839 -6.818,2.516c-1.443,1.677 -2.164,4.446 -2.164,8.305l0,15.556l-4.491,0l0,-29.65l3.652,0l0.731,4.058l0.216,0c0.92,-1.461 2.209,-2.593 3.869,-3.396c1.659,-0.802 3.508,-1.203 5.546,-1.203c3.571,0 6.258,0.861 8.061,2.583c1.804,1.723 2.706,4.477 2.706,8.265l0,19.343l-4.491,0Z" style="fill:#9c9191;fill-rule:nonzero;"/><path d="M353.624,212.371c-4.383,0 -7.841,-1.335 -10.375,-4.004c-2.534,-2.669 -3.801,-6.375 -3.801,-11.119c0,-4.779 1.177,-8.576 3.53,-11.389c2.354,-2.814 5.515,-4.22 9.482,-4.22c3.716,0 6.655,1.222 8.82,3.665c2.164,2.444 3.246,5.668 3.246,9.672l0,2.84l-20.425,0c0.09,3.481 0.969,6.123 2.638,7.927c1.668,1.804 4.017,2.705 7.047,2.705c3.192,0 6.348,-0.667 9.469,-2.002l0,4.004c-1.588,0.686 -3.089,1.177 -4.505,1.475c-1.416,0.297 -3.124,0.446 -5.126,0.446ZM352.406,185.399c-2.38,0 -4.279,0.776 -5.694,2.327c-1.416,1.551 -2.25,3.697 -2.503,6.438l15.502,0c0,-2.831 -0.632,-5 -1.894,-6.506c-1.263,-1.506 -3.066,-2.259 -5.411,-2.259Z" style="fill:#9c9191;fill-rule:nonzero;"/><path d="M385.709,181.639c1.316,0 2.498,0.108 3.544,0.324l-0.623,4.166c-1.226,-0.27 -2.308,-0.405 -3.246,-0.405c-2.399,0 -4.45,0.974 -6.155,2.921c-1.704,1.948 -2.556,4.374 -2.556,7.278l0,15.907l-4.491,0l0,-29.65l3.706,0l0.514,5.491l0.217,0c1.1,-1.929 2.426,-3.417 3.977,-4.463c1.551,-1.046 3.255,-1.569 5.113,-1.569Z" style="fill:#9c9191;fill-rule:nonzero;"/><path d="M411.923,211.83l-0.892,-4.22l-0.217,0c-1.479,1.857 -2.953,3.115 -4.423,3.774c-1.47,0.658 -3.305,0.987 -5.505,0.987c-2.94,0 -5.244,-0.757 -6.913,-2.272c-1.668,-1.515 -2.502,-3.671 -2.502,-6.466c0,-5.988 4.788,-9.126 14.365,-9.415l5.032,-0.162l0,-1.84c0,-2.326 -0.5,-4.044 -1.501,-5.153c-1.001,-1.109 -2.602,-1.664 -4.802,-1.664c-2.471,0 -5.267,0.757 -8.387,2.272l-1.379,-3.435c1.46,-0.794 3.061,-1.416 4.802,-1.867c1.74,-0.451 3.485,-0.676 5.234,-0.676c3.535,0 6.155,0.784 7.859,2.353c1.705,1.569 2.557,4.085 2.557,7.548l0,20.236l-3.328,0ZM401.778,208.665c2.796,0 4.992,-0.767 6.588,-2.3c1.596,-1.533 2.394,-3.679 2.394,-6.438l0,-2.679l-4.491,0.19c-3.571,0.126 -6.145,0.681 -7.724,1.663c-1.578,0.983 -2.367,2.512 -2.367,4.586c0,1.623 0.492,2.859 1.475,3.706c0.983,0.848 2.358,1.272 4.125,1.272Z" style="fill:#9c9191;fill-rule:nonzero;"/><path d="M434.08,208.665c0.793,0 1.56,-0.059 2.299,-0.176c0.74,-0.117 1.326,-0.239 1.759,-0.365l0,3.435c-0.487,0.235 -1.204,0.429 -2.151,0.582c-0.947,0.153 -1.799,0.23 -2.556,0.23c-5.736,0 -8.603,-3.021 -8.603,-9.063l0,-17.638l-4.248,0l0,-2.165l4.248,-1.866l1.893,-6.331l2.598,0l0,6.872l8.602,0l0,3.49l-8.602,0l0,17.449c0,1.785 0.423,3.156 1.271,4.112c0.848,0.956 2.011,1.434 3.49,1.434Z" style="fill:#9c9191;fill-rule:nonzero;"/><path d="M448.553,211.83l-4.49,0l0,-29.65l4.49,0l0,29.65ZM443.684,174.145c0,-1.028 0.252,-1.781 0.757,-2.259c0.505,-0.478 1.137,-0.717 1.894,-0.717c0.721,0 1.344,0.243 1.867,0.73c0.523,0.487 0.784,1.236 0.784,2.246c0,1.01 -0.261,1.763 -0.784,2.259c-0.523,0.496 -1.146,0.744 -1.867,0.744c-0.757,0 -1.389,-0.248 -1.894,-0.744c-0.505,-0.496 -0.757,-1.249 -0.757,-2.259Z" style="fill:#9c9191;fill-rule:nonzero;"/><path d="M483.668,196.978c0,4.833 -1.217,8.607 -3.652,11.322c-2.435,2.714 -5.798,4.071 -10.091,4.071c-2.651,0 -5.004,-0.622 -7.06,-1.867c-2.057,-1.244 -3.644,-3.03 -4.762,-5.356c-1.118,-2.327 -1.677,-5.05 -1.677,-8.17c0,-4.834 1.208,-8.599 3.625,-11.295c2.417,-2.696 5.771,-4.044 10.064,-4.044c4.148,0 7.444,1.379 9.888,4.139c2.444,2.759 3.665,6.493 3.665,11.2ZM461.079,196.978c0,3.787 0.758,6.673 2.272,8.657c1.515,1.984 3.743,2.976 6.683,2.976c2.939,0 5.171,-0.988 6.695,-2.963c1.524,-1.975 2.286,-4.865 2.286,-8.67c0,-3.77 -0.762,-6.633 -2.286,-8.59c-1.524,-1.956 -3.774,-2.935 -6.749,-2.935c-2.94,0 -5.159,0.965 -6.656,2.895c-1.497,1.93 -2.245,4.806 -2.245,8.63Z" style="fill:#9c9191;fill-rule:nonzero;"/><path d="M511.831,211.83l0,-19.181c0,-2.416 -0.55,-4.22 -1.65,-5.41c-1.101,-1.191 -2.823,-1.786 -5.168,-1.786c-3.102,0 -5.374,0.839 -6.817,2.516c-1.443,1.677 -2.164,4.446 -2.164,8.305l0,15.556l-4.491,0l0,-29.65l3.652,0l0.731,4.058l0.216,0c0.92,-1.461 2.209,-2.593 3.869,-3.396c1.659,-0.802 3.508,-1.203 5.546,-1.203c3.571,0 6.258,0.861 8.061,2.583c1.804,1.723 2.706,4.477 2.706,8.265l0,19.343l-4.491,0Z" style="fill:#9c9191;fill-rule:nonzero;"/><path d="M544.159,182.18l0,19.235c0,2.416 0.551,4.22 1.651,5.41c1.1,1.19 2.822,1.786 5.167,1.786c3.102,0 5.37,-0.848 6.804,-2.543c1.434,-1.696 2.15,-4.464 2.15,-8.306l0,-15.582l4.491,0l0,29.65l-3.706,0l-0.649,-3.977l-0.244,0c-0.92,1.461 -2.196,2.579 -3.828,3.355c-1.632,0.775 -3.494,1.163 -5.586,1.163c-3.607,0 -6.308,-0.857 -8.103,-2.57c-1.794,-1.713 -2.691,-4.455 -2.691,-8.224l0,-19.397l4.544,0Z" style="fill:#9c9191;fill-rule:nonzero;"/><path d="M593.072,203.741c0,2.76 -1.028,4.888 -3.084,6.385c-2.056,1.497 -4.942,2.245 -8.657,2.245c-3.932,0 -6.998,-0.622 -9.199,-1.867l0,-4.166c1.425,0.722 2.954,1.29 4.586,1.705c1.632,0.414 3.206,0.622 4.721,0.622c2.344,0 4.148,-0.374 5.41,-1.123c1.263,-0.748 1.894,-1.889 1.894,-3.422c0,-1.154 -0.5,-2.142 -1.501,-2.962c-1.001,-0.821 -2.954,-1.791 -5.857,-2.909c-2.76,-1.028 -4.721,-1.925 -5.884,-2.692c-1.164,-0.766 -2.029,-1.636 -2.597,-2.61c-0.569,-0.974 -0.853,-2.137 -0.853,-3.49c0,-2.417 0.983,-4.324 2.949,-5.722c1.966,-1.398 4.662,-2.096 8.089,-2.096c3.192,0 6.312,0.649 9.36,1.947l-1.596,3.653c-2.976,-1.227 -5.672,-1.84 -8.089,-1.84c-2.128,0 -3.733,0.334 -4.815,1.001c-1.082,0.667 -1.623,1.587 -1.623,2.759c0,0.794 0.203,1.47 0.608,2.029c0.406,0.559 1.06,1.092 1.962,1.597c0.902,0.505 2.633,1.235 5.194,2.191c3.517,1.28 5.893,2.57 7.129,3.868c1.235,1.299 1.853,2.931 1.853,4.897Z" style="fill:#9c9191;fill-rule:nonzero;"/><path d="M604.867,211.83l-4.491,0l0,-29.65l4.491,0l0,29.65ZM599.997,174.145c0,-1.028 0.253,-1.781 0.758,-2.259c0.505,-0.478 1.136,-0.717 1.894,-0.717c0.721,0 1.343,0.243 1.866,0.73c0.523,0.487 0.785,1.236 0.785,2.246c0,1.01 -0.262,1.763 -0.785,2.259c-0.523,0.496 -1.145,0.744 -1.866,0.744c-0.758,0 -1.389,-0.248 -1.894,-0.744c-0.505,-0.496 -0.758,-1.249 -0.758,-2.259Z" style="fill:#9c9191;fill-rule:nonzero;"/><path d="M634.68,211.83l0,-19.181c0,-2.416 -0.551,-4.22 -1.651,-5.41c-1.1,-1.191 -2.822,-1.786 -5.167,-1.786c-3.102,0 -5.374,0.839 -6.817,2.516c-1.443,1.677 -2.165,4.446 -2.165,8.305l0,15.556l-4.49,0l0,-29.65l3.652,0l0.73,4.058l0.217,0c0.919,-1.461 2.209,-2.593 3.868,-3.396c1.66,-0.802 3.508,-1.203 5.546,-1.203c3.571,0 6.259,0.861 8.062,2.583c1.804,1.723 2.705,4.477 2.705,8.265l0,19.343l-4.49,0Z" style="fill:#9c9191;fill-rule:nonzero;"/><path d="M672.662,182.18l0,2.84l-5.492,0.65c0.505,0.631 0.956,1.456 1.353,2.475c0.397,1.019 0.595,2.169 0.595,3.449c0,2.904 -0.992,5.221 -2.976,6.953c-1.983,1.731 -4.707,2.597 -8.17,2.597c-0.883,0 -1.713,-0.072 -2.489,-0.216c-1.911,1.01 -2.867,2.281 -2.867,3.814c0,0.812 0.333,1.411 1.001,1.799c0.667,0.388 1.812,0.582 3.436,0.582l5.248,0c3.21,0 5.677,0.676 7.399,2.029c1.722,1.352 2.584,3.318 2.584,5.897c0,3.283 -1.317,5.785 -3.95,7.508c-2.633,1.722 -6.475,2.583 -11.525,2.583c-3.878,0 -6.867,-0.721 -8.968,-2.164c-2.101,-1.443 -3.152,-3.481 -3.152,-6.114c0,-1.804 0.577,-3.364 1.732,-4.68c1.154,-1.317 2.777,-2.21 4.869,-2.679c-0.757,-0.342 -1.393,-0.874 -1.907,-1.596c-0.514,-0.721 -0.771,-1.56 -0.771,-2.516c0,-1.082 0.289,-2.029 0.866,-2.84c0.577,-0.812 1.488,-1.596 2.732,-2.354c-1.533,-0.631 -2.782,-1.704 -3.747,-3.219c-0.965,-1.515 -1.447,-3.247 -1.447,-5.194c0,-3.247 0.974,-5.749 2.922,-7.508c1.947,-1.758 4.707,-2.637 8.278,-2.637c1.551,0 2.949,0.18 4.193,0.541l10.253,0ZM649.018,216.808c0,1.605 0.676,2.822 2.029,3.652c1.352,0.83 3.291,1.244 5.816,1.244c3.77,0 6.561,-0.563 8.373,-1.69c1.813,-1.128 2.719,-2.656 2.719,-4.586c0,-1.605 -0.496,-2.719 -1.488,-3.341c-0.992,-0.622 -2.859,-0.933 -5.6,-0.933l-5.384,0c-2.038,0 -3.625,0.487 -4.761,1.461c-1.136,0.973 -1.704,2.371 -1.704,4.193ZM651.453,191.675c0,2.074 0.586,3.644 1.758,4.708c1.172,1.064 2.805,1.596 4.897,1.596c4.382,0 6.574,-2.128 6.574,-6.385c0,-4.455 -2.219,-6.682 -6.656,-6.682c-2.11,0 -3.733,0.568 -4.869,1.704c-1.136,1.137 -1.704,2.823 -1.704,5.059Z" style="fill:#9c9191;fill-rule:nonzero;"/><path d="M711.321,211.83l-13.418,-35.061l-0.217,0c0.253,2.777 0.379,6.078 0.379,9.902l0,25.159l-4.247,0l0,-39.552l6.926,0l12.525,32.626l0.217,0l12.633,-32.626l6.872,0l0,39.552l-4.599,0l0,-25.484c0,-2.922 0.126,-6.096 0.379,-9.523l-0.217,0l-13.526,35.007l-3.707,0Z" style="fill:#9c9191;fill-rule:nonzero;"/><path d="M761.397,211.83l-0.893,-4.22l-0.216,0c-1.479,1.857 -2.954,3.115 -4.424,3.774c-1.469,0.658 -3.305,0.987 -5.505,0.987c-2.94,0 -5.244,-0.757 -6.912,-2.272c-1.668,-1.515 -2.502,-3.671 -2.502,-6.466c0,-5.988 4.788,-9.126 14.365,-9.415l5.032,-0.162l0,-1.84c0,-2.326 -0.501,-4.044 -1.502,-5.153c-1.001,-1.109 -2.601,-1.664 -4.802,-1.664c-2.471,0 -5.266,0.757 -8.386,2.272l-1.38,-3.435c1.461,-0.794 3.062,-1.416 4.802,-1.867c1.741,-0.451 3.485,-0.676 5.235,-0.676c3.535,0 6.155,0.784 7.859,2.353c1.704,1.569 2.556,4.085 2.556,7.548l0,20.236l-3.327,0ZM751.252,208.665c2.795,0 4.991,-0.767 6.587,-2.3c1.596,-1.533 2.395,-3.679 2.395,-6.438l0,-2.679l-4.491,0.19c-3.571,0.126 -6.146,0.681 -7.724,1.663c-1.578,0.983 -2.367,2.512 -2.367,4.586c0,1.623 0.491,2.859 1.474,3.706c0.983,0.848 2.358,1.272 4.126,1.272Z" style="fill:#9c9191;fill-rule:nonzero;"/><path d="M787.503,181.639c1.317,0 2.498,0.108 3.544,0.324l-0.622,4.166c-1.226,-0.27 -2.309,-0.405 -3.246,-0.405c-2.399,0 -4.451,0.974 -6.155,2.921c-1.704,1.948 -2.557,4.374 -2.557,7.278l0,15.907l-4.49,0l0,-29.65l3.706,0l0.514,5.491l0.216,0c1.1,-1.929 2.426,-3.417 3.977,-4.463c1.551,-1.046 3.256,-1.569 5.113,-1.569Z" style="fill:#9c9191;fill-rule:nonzero;"/><path d="M801.03,196.653c0.775,-1.1 1.957,-2.543 3.544,-4.328l9.577,-10.145l5.329,0l-12.012,12.634l12.851,17.016l-5.438,0l-10.47,-14.014l-3.381,2.922l0,11.092l-4.437,0l0,-42.095l4.437,0l0,22.319c0,0.992 -0.072,2.525 -0.217,4.599l0.217,0Z" style="fill:#9c9191;fill-rule:nonzero;"/><path d="M850.158,196.978c0,4.833 -1.217,8.607 -3.652,11.322c-2.435,2.714 -5.798,4.071 -10.091,4.071c-2.651,0 -5.004,-0.622 -7.06,-1.867c-2.057,-1.244 -3.644,-3.03 -4.762,-5.356c-1.118,-2.327 -1.677,-5.05 -1.677,-8.17c0,-4.834 1.208,-8.599 3.625,-11.295c2.417,-2.696 5.771,-4.044 10.064,-4.044c4.148,0 7.444,1.379 9.888,4.139c2.444,2.759 3.665,6.493 3.665,11.2ZM827.569,196.978c0,3.787 0.758,6.673 2.272,8.657c1.515,1.984 3.743,2.976 6.683,2.976c2.939,0 5.171,-0.988 6.695,-2.963c1.524,-1.975 2.286,-4.865 2.286,-8.67c0,-3.77 -0.762,-6.633 -2.286,-8.59c-1.524,-1.956 -3.774,-2.935 -6.749,-2.935c-2.94,0 -5.159,0.965 -6.656,2.895c-1.497,1.93 -2.245,4.806 -2.245,8.63Z" style="fill:#9c9191;fill-rule:nonzero;"/><path d="M863.415,211.83l-11.255,-29.65l4.816,0l6.384,17.584c1.443,4.112 2.291,6.782 2.543,8.008l0.217,0c0.198,-0.956 0.825,-2.935 1.88,-5.938c1.055,-3.003 3.422,-9.554 7.102,-19.654l4.815,0l-11.254,29.65l-5.248,0Z" style="fill:#9c9191;fill-rule:nonzero;"/><path d="M910.92,212.371c-4.292,0 -7.615,-1.321 -9.969,-3.963c-2.354,-2.642 -3.531,-6.38 -3.531,-11.214c0,-4.96 1.195,-8.792 3.585,-11.497c2.39,-2.706 5.794,-4.058 10.213,-4.058c1.424,0 2.849,0.153 4.274,0.46c1.425,0.306 2.543,0.667 3.355,1.082l-1.38,3.814c-0.992,-0.397 -2.074,-0.726 -3.247,-0.987c-1.172,-0.262 -2.209,-0.393 -3.111,-0.393c-6.023,0 -9.035,3.842 -9.035,11.525c0,3.643 0.735,6.439 2.204,8.387c1.47,1.947 3.648,2.921 6.534,2.921c2.471,0 5.005,-0.532 7.602,-1.596l0,3.977c-1.984,1.028 -4.482,1.542 -7.494,1.542Z" style="fill:#9c9191;fill-rule:nonzero;"/><path d="M945.737,211.83l0,-19.181c0,-2.416 -0.55,-4.22 -1.65,-5.41c-1.1,-1.191 -2.822,-1.786 -5.167,-1.786c-3.12,0 -5.397,0.848 -6.831,2.543c-1.434,1.695 -2.151,4.473 -2.151,8.333l0,15.501l-4.49,0l0,-42.095l4.49,0l0,12.742c0,1.533 -0.072,2.805 -0.216,3.815l0.271,0c0.883,-1.425 2.141,-2.548 3.773,-3.368c1.633,-0.821 3.495,-1.231 5.587,-1.231c3.625,0 6.344,0.861 8.156,2.583c1.813,1.723 2.719,4.46 2.719,8.211l0,19.343l-4.491,0Z" style="fill:#9c9191;fill-rule:nonzero;"/><path d="M977.687,211.83l-0.892,-4.22l-0.217,0c-1.479,1.857 -2.953,3.115 -4.423,3.774c-1.47,0.658 -3.305,0.987 -5.505,0.987c-2.94,0 -5.244,-0.757 -6.912,-2.272c-1.669,-1.515 -2.503,-3.671 -2.503,-6.466c0,-5.988 4.789,-9.126 14.365,-9.415l5.032,-0.162l0,-1.84c0,-2.326 -0.5,-4.044 -1.501,-5.153c-1.001,-1.109 -2.602,-1.664 -4.802,-1.664c-2.471,0 -5.266,0.757 -8.387,2.272l-1.379,-3.435c1.461,-0.794 3.061,-1.416 4.802,-1.867c1.74,-0.451 3.485,-0.676 5.234,-0.676c3.535,0 6.155,0.784 7.859,2.353c1.705,1.569 2.557,4.085 2.557,7.548l0,20.236l-3.328,0ZM967.542,208.665c2.796,0 4.992,-0.767 6.588,-2.3c1.596,-1.533 2.394,-3.679 2.394,-6.438l0,-2.679l-4.491,0.19c-3.571,0.126 -6.145,0.681 -7.723,1.663c-1.579,0.983 -2.368,2.512 -2.368,4.586c0,1.623 0.492,2.859 1.475,3.706c0.983,0.848 2.358,1.272 4.125,1.272Z" style="fill:#9c9191;fill-rule:nonzero;"/><path d="M994.758,211.83l-4.491,0l0,-29.65l4.491,0l0,29.65ZM989.888,174.145c0,-1.028 0.253,-1.781 0.758,-2.259c0.505,-0.478 1.136,-0.717 1.894,-0.717c0.721,0 1.343,0.243 1.866,0.73c0.523,0.487 0.785,1.236 0.785,2.246c0,1.01 -0.262,1.763 -0.785,2.259c-0.523,0.496 -1.145,0.744 -1.866,0.744c-0.758,0 -1.389,-0.248 -1.894,-0.744c-0.505,-0.496 -0.758,-1.249 -0.758,-2.259Z" style="fill:#9c9191;fill-rule:nonzero;"/><path d="M1024.57,211.83l0,-19.181c0,-2.416 -0.55,-4.22 -1.651,-5.41c-1.1,-1.191 -2.822,-1.786 -5.167,-1.786c-3.102,0 -5.374,0.839 -6.817,2.516c-1.443,1.677 -2.164,4.446 -2.164,8.305l0,15.556l-4.491,0l0,-29.65l3.652,0l0.73,4.058l0.217,0c0.92,-1.461 2.209,-2.593 3.868,-3.396c1.66,-0.802 3.508,-1.203 5.546,-1.203c3.571,0 6.259,0.861 8.062,2.583c1.804,1.723 2.705,4.477 2.705,8.265l0,19.343l-4.49,0Z" style="fill:#9c9191;fill-rule:nonzero;"/><path d="M1057.41,203.741c0,2.76 -1.028,4.888 -3.084,6.385c-2.056,1.497 -4.942,2.245 -8.657,2.245c-3.932,0 -6.998,-0.622 -9.198,-1.867l0,-4.166c1.425,0.722 2.953,1.29 4.586,1.705c1.632,0.414 3.205,0.622 4.72,0.622c2.345,0 4.148,-0.374 5.411,-1.123c1.262,-0.748 1.894,-1.889 1.894,-3.422c0,-1.154 -0.501,-2.142 -1.502,-2.962c-1.001,-0.821 -2.953,-1.791 -5.857,-2.909c-2.759,-1.028 -4.721,-1.925 -5.884,-2.692c-1.163,-0.766 -2.029,-1.636 -2.597,-2.61c-0.568,-0.974 -0.852,-2.137 -0.852,-3.49c0,-2.417 0.983,-4.324 2.949,-5.722c1.966,-1.398 4.662,-2.096 8.089,-2.096c3.192,0 6.312,0.649 9.36,1.947l-1.596,3.653c-2.976,-1.227 -5.672,-1.84 -8.089,-1.84c-2.128,0 -3.733,0.334 -4.816,1.001c-1.082,0.667 -1.623,1.587 -1.623,2.759c0,0.794 0.203,1.47 0.609,2.029c0.406,0.559 1.06,1.092 1.961,1.597c0.902,0.505 2.633,1.235 5.195,2.191c3.516,1.28 5.893,2.57 7.128,3.868c1.235,1.299 1.853,2.931 1.853,4.897Z" style="fill:#9c9191;fill-rule:nonzero;"/></g></svg>